<svg xmlns="http://www.w3.org/2000/svg" width="498.154" height="180.081" viewBox="0 0 498.154 180.081"><g transform="translate(-206.387 -561.565)"><path d="M424,725l2,.5-2,1Z" transform="translate(85.25 15.146)" fill="rgba(90,193,189,0.97)"/><path d="M13.815,51.044a11.145,11.145,0,0,1-5.5-1.681,22.886,22.886,0,0,1-4.7-3.7C1.28,43.319-.205,40.952.023,40.4a.189.189,0,0,1,.193-.115.545.545,0,0,1,.157.025H.735c3.623,0,7.63-.116,9.327-1.5a3.078,3.078,0,0,0,1.168-2.268c.167-2.3-1.672-5.049-2.361-5.789a15.91,15.91,0,0,1-2.923-4.477,16.842,16.842,0,0,1-1.358-5.3,15.88,15.88,0,0,1,.476-5.555,15.207,15.207,0,0,1,2.584-5.255,21.339,21.339,0,0,1,7.105-5.5A43.911,43.911,0,0,1,28.693.506,60.461,60.461,0,0,1,37.036,0,131.07,131.07,0,0,1,57.589,1.8,106.137,106.137,0,0,1,93.278,14.537a68.656,68.656,0,0,1,13.713,10.358,37.408,37.408,0,0,1,8.479,12.194A59.333,59.333,0,0,0,99.42,23.115a58.186,58.186,0,0,0-19.572-7.2,9.122,9.122,0,0,0-.22-.977,8.479,8.479,0,0,0-3.123-4.505A8.633,8.633,0,0,0,71.4,8.738a8.558,8.558,0,0,0-8.31,6.534,59.169,59.169,0,0,0-8.571,1.4,8.36,8.36,0,0,0-3.056-9.022,8.451,8.451,0,0,0-5-1.657,8.372,8.372,0,0,0-4.657,15.331c-1.106.556-2.213,1.157-3.29,1.788A59.2,59.2,0,0,0,16.985,45.068a61.454,61.454,0,0,0-2.943,5.972l-.058,0h-.01Zm8.153-41.2a9.61,9.61,0,1,0,5.725,1.9A9.582,9.582,0,0,0,21.968,9.843Z" transform="translate(206.387 561.565)" fill="#c5cecc"/><path d="M53.127,154.221a61.7,61.7,0,0,1-25.573-5.551A54.775,54.775,0,0,1,7.035,132.417a8.509,8.509,0,0,1-1.857-6.937,8.871,8.871,0,0,1,3.811-5.748,9.215,9.215,0,0,1,5.458-1.776,9.316,9.316,0,0,1,1.869.19,9.9,9.9,0,0,1,6.156,3.964,36.3,36.3,0,0,0,13.288,10.506,42.234,42.234,0,0,0,17.45,3.772c.261,0,.5,0,.724-.006H54.2a34.113,34.113,0,0,0,17.026-4.56,32.524,32.524,0,0,0,12.6-13.477,40.434,40.434,0,0,0,3.993-12.474A57.992,57.992,0,0,0,105.9,86.042c.622-1.135,1.217-2.307,1.769-3.482V97.929a59.36,59.36,0,0,1-6.839,28.444,52.6,52.6,0,0,1-19.053,20.315,49.217,49.217,0,0,1-13.166,5.648,58.564,58.564,0,0,1-15.071,1.883ZM10.176,89.751v0a49.318,49.318,0,0,1-3.726-6.19,55.281,55.281,0,0,1-4.837-13.3A68.7,68.7,0,0,1,0,55.115,65.053,65.053,0,0,1,1.734,39.83a52.7,52.7,0,0,1,5.2-13.354c.418-.758.862-1.517,1.321-2.257.087.556.193,1.139.317,1.734a15.978,15.978,0,0,0,6.485,9.179A13.477,13.477,0,0,0,22.676,37.8,40.709,40.709,0,0,0,19.15,55.115a39.962,39.962,0,0,0,4.495,19.226c.353.669.735,1.336,1.135,1.982a13.186,13.186,0,0,0-8.534,3.12,15.277,15.277,0,0,0-4.027,4.475,16.09,16.09,0,0,0-2.043,5.83Z" transform="translate(351.419 582.6)" fill="#23395b"/><path d="M370.093,460.051c-9.768.171-21.051-2.448-29.5-7.352a51.9,51.9,0,0,1-19.149-19.623,56.411,56.411,0,0,1-6.936-28.046,58.422,58.422,0,0,1,6.839-28.541,50.17,50.17,0,0,1,18.758-19.524,52.781,52.781,0,0,1,27.355-7.036c7.276-.088,16.411,1.107,23.031,4.132,6.631,3.165,12.9,6.83,16.48,11.406,1.707,1.713,1.228,6.471.741,8.842a10.342,10.342,0,0,1-4.3,5.946,7.344,7.344,0,0,1-6.057,1.289c-2.322-.523-2.9-2.008-5.188-3.906-6.072-6.736-15.642-10.062-24.707-9.87a37.916,37.916,0,0,0-17.158,4.777,32.824,32.824,0,0,0-12.249,12.939,42,42,0,0,0-4.4,19.546,40.126,40.126,0,0,0,4.4,19.027A33.131,33.131,0,0,0,368.438,442.1,39.12,39.12,0,0,0,380.422,440a27.727,27.727,0,0,0,9.349-5.14,11.879,11.879,0,0,1,6.609-2.577,7.62,7.62,0,0,1,5.862,1.882,9.509,9.509,0,0,1,3.713,6.244c.253,2.335.244,5.938-1.483,7.53C394.751,457.084,382.279,460.271,370.093,460.051Z" transform="translate(166.781 232.681)" fill="#23395b"/><path d="M352.577,460.051c9.768.171,21.053-2.448,29.5-7.352a51.9,51.9,0,0,0,19.15-19.623,56.408,56.408,0,0,0,6.937-28.046,58.42,58.42,0,0,0-6.84-28.541,50.173,50.173,0,0,0-18.76-19.524,52.789,52.789,0,0,0-27.358-7.036c-7.277-.088-16.413,1.107-23.033,4.132-6.631,3.165-12.9,6.83-16.481,11.406-1.708,1.713-1.228,6.471-.741,8.842a10.343,10.343,0,0,0,4.3,5.946,7.345,7.345,0,0,0,6.058,1.289c2.322-.523,2.9-2.008,5.188-3.906,6.072-6.736,15.644-10.062,24.71-9.87a37.921,37.921,0,0,1,17.159,4.777,32.827,32.827,0,0,1,12.25,12.939,42,42,0,0,1,4.4,19.546,40.124,40.124,0,0,1-4.4,19.027A33.135,33.135,0,0,1,354.232,442.1,39.126,39.126,0,0,1,342.247,440a27.727,27.727,0,0,1-9.349-5.14,11.881,11.881,0,0,0-6.61-2.577,7.621,7.621,0,0,0-5.862,1.882,9.509,9.509,0,0,0-3.713,6.244c-.253,2.335-.244,5.938,1.483,7.53C327.916,457.084,340.39,460.271,352.577,460.051Z" transform="translate(50.833 232.681)" fill="#bec5d0"/><path d="M50.035,110.011c-.22,0-.444,0-.663,0a46.477,46.477,0,0,1-24.936-7.24A51.182,51.182,0,0,1,6.555,83.153,59.078,59.078,0,0,1,.008,55.107,55.759,55.759,0,0,1,7.141,26.962,52.756,52.756,0,0,1,53.182,0c.253,0,.509,0,.761,0s.536-.006.8-.006A52.36,52.36,0,0,1,81.3,7.241a53.482,53.482,0,0,1,19.248,19.721,55.822,55.822,0,0,1,7.133,28.146h0v44.2a9.882,9.882,0,0,1-2.833,7.234,10.288,10.288,0,0,1-14.265,0,9.879,9.879,0,0,1-2.834-7.234V91.958a51.173,51.173,0,0,1-12.115,10.817,46.487,46.487,0,0,1-24.936,7.24C50.477,110.015,50.253,110.014,50.035,110.011Zm3.908-17.839c.188,0,.366.006.545.006a33,33,0,0,0,17.238-4.861,34.353,34.353,0,0,0,12.311-13.28,39.712,39.712,0,0,0,4.495-18.928,40.154,40.154,0,0,0-4.495-19.127A34.369,34.369,0,0,0,71.726,22.7a33,33,0,0,0-17.238-4.86c-.181,0-.364,0-.545,0l-.411,0A33.117,33.117,0,0,0,36.258,22.7a34.818,34.818,0,0,0-12.507,13.28,39.374,39.374,0,0,0-4.592,19.127,38.956,38.956,0,0,0,4.592,18.928A34.815,34.815,0,0,0,36.258,87.315a33.127,33.127,0,0,0,17.275,4.859Zm0,0,0,0Z" transform="translate(221.46 582.609)" fill="#23395b"/><path d="M64.076,5.045h0a54.914,54.914,0,0,0-6.787-.423c-.3,0-.581,0-.841.006s-.528-.005-.8-.005c-.636,0-1.281.011-1.917.033a5.556,5.556,0,0,1,10.342.387Z" transform="translate(218.96 571.987)" fill="#f01212"/><path d="M34.769,11.915h0A5.376,5.376,0,1,1,40,10.065c-1.767.527-3.527,1.15-5.233,1.851Z" transform="translate(217.005 569.287)" fill="#3dce3d"/><path d="M6.595,0A6.595,6.595,0,1,1,0,6.595,6.595,6.595,0,0,1,6.595,0Z" transform="translate(220.201 576.482) rotate(-16)" fill="#0f0fc7"/><path d="M57.654,110.012c-.22,0-.443.005-.663.005a46.5,46.5,0,0,1-24.936-7.24A51.174,51.174,0,0,1,19.94,91.959v7.35a9.882,9.882,0,0,1-2.833,7.235,9.609,9.609,0,0,1-7.133,2.874,9.608,9.608,0,0,1-7.133-2.876A9.886,9.886,0,0,1,.007,99.309v-44.2h0A55.808,55.808,0,0,1,7.139,26.964,53.464,53.464,0,0,1,26.387,7.241,52.355,52.355,0,0,1,52.943,0c.266,0,.536,0,.8.006S54.253,0,54.506,0a52.76,52.76,0,0,1,46.042,26.961,55.765,55.765,0,0,1,7.132,28.146,59.084,59.084,0,0,1-6.547,28.046,51.176,51.176,0,0,1-17.88,19.623,46.482,46.482,0,0,1-24.936,7.24C58.1,110.017,57.874,110.015,57.654,110.012ZM35.963,22.7a34.352,34.352,0,0,0-12.311,13.28,40.136,40.136,0,0,0-4.495,19.127,39.694,39.694,0,0,0,4.495,18.929A34.353,34.353,0,0,0,35.963,87.316a33,33,0,0,0,17.242,4.862c.178,0,.355,0,.54-.005l.41,0a33.127,33.127,0,0,0,17.275-4.859A34.833,34.833,0,0,0,83.938,74.037a38.957,38.957,0,0,0,4.592-18.929,39.37,39.37,0,0,0-4.592-19.127A34.834,34.834,0,0,0,71.431,22.7a33.119,33.119,0,0,0-17.275-4.858l-.411,0c-.179,0-.361,0-.54,0A33,33,0,0,0,35.963,22.7ZM53.745,92.173l0,0,0,0Z" transform="translate(596.851 582.607)" fill="#bec5d0"/></g></svg>