<?xml version="1.0" encoding="utf-8"?>
<!DOCTYPE svg PUBLIC "-//W3C//DTD SVG 1.1//EN" "http://www.w3.org/Graphics/SVG/1.1/DTD/svg11.dtd">
<svg version="1.1" id="Layer_1" xmlns="http://www.w3.org/2000/svg" xmlns:xlink="http://www.w3.org/1999/xlink" x="0px" y="0px"
	 width="630px" height="628px" viewBox="14.5 144.5 630 628" enable-background="new 14.5 144.5 630 628" xml:space="preserve">
<path fill="#826C63" d="M22.176,459.569c0.107-148.292,106.659-276.429,252.468-301.53c101.109-17.405,189.839,9.909,265.619,79.105
	c5.025,4.589,4.95,4.665,0.091,9.579c-18.987,19.195-38.03,38.336-56.895,57.652c-2.589,2.65-3.854,2.698-6.607,0.109
	c-38.229-35.942-83.52-55.73-135.988-58.721c-108.471-6.182-204.786,70.362-223.026,177.18
	C98.713,534.93,167.717,641.846,278.021,668.18c75.265,17.971,142.093-0.697,199.206-53.114c2.839-2.605,4.145-2.731,6.898,0.027
	c19.542,19.582,39.208,39.043,59.031,58.341c2.954,2.875,2.54,4.254-0.163,6.838c-48.604,46.447-106.005,74.789-172.692,83.896
	c-134.173,18.317-263.947-53.306-320.47-176.729C31.691,547.824,22.144,503.681,22.176,459.569z"/>
<path fill="#E75E3B" d="M189.743,461.675c0.279-35.251,12.118-66.052,35.46-92.509c2.796-3.168,4.471-3.993,7.98-0.455
	c16.776,16.912,33.846,33.536,50.943,50.126c2.379,2.31,2.683,3.532,0.358,6.258c-15.772,18.497-17.97,44.327-5.852,65.258
	c11.934,20.611,36.038,31.74,59.191,27.327c23.854-4.546,42.271-23.073,45.867-46.882c2.533-16.788-1.412-32.14-12.478-45.267
	c-2.104-2.496-1.872-3.759,0.312-5.96c17.13-17.27,34.182-34.615,51.098-52.093c2.524-2.607,3.854-2.453,6.129,0.156
	c35.967,41.242,46.969,88.324,28.796,139.929c-17.878,50.769-55,81.611-108.243,90.352
	c-77.521,12.724-147.786-40.599-158.557-118.765C189.948,473.336,189.98,467.527,189.743,461.675z"/>
</svg>
