<svg xmlns="http://www.w3.org/2000/svg" width="477.19" height="480.341" viewBox="0 0 477.19 480.341">
  <g id="Group_1" data-name="Group 1" transform="translate(-215.81 -291.126)">
    <path id="Subtraction_1" data-name="Subtraction 1" d="M232.264,526.523a233.181,233.181,0,0,1-46.649-4.7,230.2,230.2,0,0,1-82.767-34.828A232.142,232.142,0,0,1,18.986,385.154,230.3,230.3,0,0,1,5.5,341.705,233.176,233.176,0,0,1,.8,295.057a30.721,30.721,0,0,1,1.183-7.848A67.641,67.641,0,0,1,5.3,277.994,172.388,172.388,0,0,1,16.916,256.5c9.495-15.342,21.62-31.921,33.346-47.955,7.233-9.89,14.063-19.228,19.649-27.449,6.264-9.217,10.081-15.731,12.012-20.5a12.142,12.142,0,0,0,.992-3.988,4.361,4.361,0,0,0-.656-2.647c-.995-1.476-3.1-2.194-6.449-2.194a68.046,68.046,0,0,0-11.6,1.486l-.871.163a60.354,60.354,0,0,1-9.425,1.323c-1.738,0-2.75-.353-3.093-1.078-.483-1.021.339-2.8,2.513-5.45a232.269,232.269,0,0,1,78.341-61.684,230.239,230.239,0,0,1,48.183-16.982,233.533,233.533,0,0,1,102.358-.555,230.4,230.4,0,0,1,87.456,39.775,233.221,233.221,0,0,1,35.205,32.071c-20.954-10.9-46.939-17.953-79.438-21.573-12.771-1.423-26.777-2.347-42.817-2.826-14.011-.419-27.666-.453-41.586-.453h-1.221l-.01,45.88-100.877-.021a30.494,30.494,0,0,0-12,2.441,31.255,31.255,0,0,0-16.476,16.476,30.7,30.7,0,0,0,0,24.01,31.238,31.238,0,0,0,16.479,16.474,30.516,30.516,0,0,0,12,2.439H239.8l.01,128.686-100.886.01h-.018a30.494,30.494,0,0,0-12,2.44,31.2,31.2,0,0,0-16.462,16.471,30.788,30.788,0,0,0,.006,24.006,31.21,31.21,0,0,0,16.474,16.473,30.547,30.547,0,0,0,12.007,2.439H239.813l-.01,44.248h3.424c14.327,0,32.158,0,49.4-.666a435.437,435.437,0,0,0,49.544-4.406c8.362-1.29,16.35-2.883,23.744-4.733a196.348,196.348,0,0,0,22.481-7.022,151.715,151.715,0,0,0,20.786-9.762,125.33,125.33,0,0,0,18.657-12.953,232.612,232.612,0,0,1-82.326,78.059,230.417,230.417,0,0,1-113.248,29.548Z" transform="translate(215.013 244.943)" fill="#009355"/>
    <text id="P" transform="translate(495 639.126)" fill="#194e38" font-size="316" font-family="Kanit-ExtraBold, Kanit" font-weight="800"><tspan x="0" y="0">P</tspan></text>
  </g>
</svg>
